<svg width="24" height="24" viewBox="0 0 24 24" fill="none" xmlns="http://www.w3.org/2000/svg">
<path fill-rule="evenodd" clip-rule="evenodd" d="M7.5 0.75C7.91421 0.75 8.25 1.08579 8.25 1.5V3H15.75V1.5C15.75 1.08579 16.0858 0.75 16.5 0.75C16.9142 0.75 17.25 1.08579 17.25 1.5V3H19.5C21.1569 3 22.5 4.34315 22.5 6V10.5V19.5C22.5 21.1569 21.1569 22.5 19.5 22.5H4.5C2.84315 22.5 1.5 21.1569 1.5 19.5V10.5V6C1.5 4.34315 2.84315 3 4.5 3H6.75V1.5C6.75 1.08579 7.08579 0.75 7.5 0.75ZM21 10.5H3V19.5C3 20.3284 3.67157 21 4.5 21H19.5C20.3284 21 21 20.3284 21 19.5V10.5ZM6 12.0001C5.44772 12.0001 5 12.4478 5 13.0001C5 13.5523 5.44772 14.0001 6 14.0001H9C9.55228 14.0001 10 13.5523 10 13.0001C10 12.4478 9.55228 12.0001 9 12.0001H6Z" fill="white"/>
</svg>
