<svg width="15" height="15" viewBox="0 0 20 20" fill="none" xmlns="http://www.w3.org/2000/svg">
<path d="M19.2929 2.72139C19.6834 2.33087 19.6834 1.6977 19.2929 1.30718L18.6928 0.707106C18.3023 0.316582 17.6691 0.316583 17.2786 0.707107L10.7071 7.27861C10.3166 7.66913 9.68342 7.66913 9.29289 7.27861L2.72139 0.707106C2.33087 0.316582 1.6977 0.316583 1.30718 0.707107L0.707106 1.30718C0.316582 1.6977 0.316583 2.33087 0.707107 2.72139L7.27861 9.29289C7.66913 9.68342 7.66913 10.3166 7.27861 10.7071L0.707106 17.2786C0.316582 17.6691 0.316583 18.3023 0.707107 18.6928L1.30718 19.2929C1.6977 19.6834 2.33087 19.6834 2.72139 19.2929L9.29289 12.7214C9.68342 12.3309 10.3166 12.3309 10.7071 12.7214L17.2786 19.2929C17.6691 19.6834 18.3023 19.6834 18.6928 19.2929L19.2929 18.6928C19.6834 18.3023 19.6834 17.6691 19.2929 17.2786L12.7214 10.7071C12.3309 10.3166 12.3309 9.68342 12.7214 9.29289L19.2929 2.72139Z" fill="black"/>
</svg>