<svg width="50" height="50" viewBox="0 0 50 50" fill="none" xmlns="http://www.w3.org/2000/svg">
<path d="M25 0.625C11.5598 0.625 0.625 11.5598 0.625 25C0.625 38.4402 11.5598 49.375 25 49.375C38.4402 49.375 49.375 38.4402 49.375 25C49.375 11.5598 38.4402 0.625 25 0.625ZM25 38.1145C24.5364 38.1145 24.0833 37.977 23.6979 37.7195C23.3125 37.4619 23.0121 37.0959 22.8347 36.6676C22.6573 36.2394 22.6108 35.7681 22.7013 35.3135C22.7917 34.8588 23.0149 34.4412 23.3427 34.1134C23.6705 33.7856 24.0881 33.5624 24.5428 33.472C24.9974 33.3816 25.4686 33.428 25.8969 33.6054C26.3252 33.7828 26.6912 34.0832 26.9488 34.4686C27.2063 34.854 27.3438 35.3072 27.3438 35.7707C27.3438 36.3923 27.0968 36.9884 26.6573 37.428C26.2177 37.8675 25.6216 38.1145 25 38.1145ZM27.5453 14.5422L26.8727 28.8391C26.8727 29.3363 26.6751 29.8133 26.3235 30.1649C25.9718 30.5165 25.4949 30.7141 24.9977 30.7141C24.5004 30.7141 24.0235 30.5165 23.6718 30.1649C23.3202 29.8133 23.1227 29.3363 23.1227 28.8391L22.45 14.5492V14.5434C22.4353 14.1999 22.4902 13.857 22.6114 13.5354C22.7327 13.2137 22.9178 12.9199 23.1556 12.6717C23.3934 12.4235 23.679 12.2259 23.9952 12.091C24.3113 11.956 24.6516 11.8864 24.9953 11.8864C25.3391 11.8864 25.6793 11.956 25.9954 12.091C26.3116 12.2259 26.5972 12.4235 26.835 12.6717C27.0728 12.9199 27.2579 13.2137 27.3792 13.5354C27.5005 13.857 27.5554 14.1999 27.5406 14.5434L27.5453 14.5422Z" fill="#F0111E"/>
</svg>
