<svg width="24" height="24" viewBox="0 0 24 24" fill="none" xmlns="http://www.w3.org/2000/svg">
<path fill-rule="evenodd" clip-rule="evenodd" d="M5.78722 8.6494C5.06381 8.6494 4.40587 9.05727 4.11097 9.68838L1 16.2109V4.31391C1 3.58948 1.61112 3 2.36255 3H7.57474C8.02288 3 8.44232 3.21233 8.69627 3.568L10.1301 5.57293C10.1332 5.57511 10.1412 5.57813 10.153 5.57813H18.1641C18.9152 5.57813 19.5263 6.16761 19.5263 6.89204V8.6494H5.78722ZM21.1629 9.894C21.8181 9.894 22.4089 10.2163 22.7433 10.7554C23.0548 11.2591 23.084 11.8756 22.8207 12.4047L19.4851 19.0903C19.1887 19.6842 18.5821 20.0595 17.9185 20.0595H2.39551C1.73639 20.0595 1.18302 19.6169 1.03733 19.0244L4.89637 10.933C5.19161 10.3017 5.84938 9.894 6.57262 9.894H21.1629Z" fill="#3FC9D1"/>
</svg>
