<svg width="24" height="24" viewBox="0 0 24 24" fill="none" xmlns="http://www.w3.org/2000/svg">
<path d="M8.20312 16.4531H15.7969C17.3478 16.4531 18.6094 15.1915 18.6094 13.6406V8.625C18.6094 7.0741 17.3478 5.8125 15.7969 5.8125H15.6552V3.5874C15.6552 1.60931 14.0149 0 11.9989 0C9.98273 0 8.34265 1.60931 8.34265 3.5874V5.8125H8.20312C6.65222 5.8125 5.39062 7.0741 5.39062 8.625V13.6406C5.39062 15.1915 6.65222 16.4531 8.20312 16.4531ZM10.2177 3.5874C10.2177 2.64313 11.0167 1.875 11.9989 1.875C12.9811 1.875 13.7802 2.64313 13.7802 3.5874V5.8125H10.2177V3.5874ZM7.26562 8.625C7.26562 8.10809 7.68622 7.6875 8.20312 7.6875H15.7969C16.3138 7.6875 16.7344 8.10809 16.7344 8.625V13.6406C16.7344 14.1575 16.3138 14.5781 15.7969 14.5781H8.20312C7.68622 14.5781 7.26562 14.1575 7.26562 13.6406V8.625ZM24 16.9219V21.6562C24 22.9486 22.9486 24 21.6562 24H2.34375C1.05139 24 0 22.9486 0 21.6562V16.9219C0 15.6295 1.05139 14.5781 2.34375 14.5781H4.125V16.4531H2.34375C2.08521 16.4531 1.875 16.6633 1.875 16.9219V21.6562C1.875 21.9148 2.08521 22.125 2.34375 22.125H21.6562C21.9148 22.125 22.125 21.9148 22.125 21.6562V16.9219C22.125 16.6633 21.9148 16.4531 21.6562 16.4531H20.2969V14.5781H21.6562C22.9486 14.5781 24 15.6295 24 16.9219ZM10.125 18.375C10.6428 18.375 11.0625 18.7947 11.0625 19.3125C11.0625 19.8303 10.6428 20.25 10.125 20.25C9.60718 20.25 9.1875 19.8303 9.1875 19.3125C9.1875 18.7947 9.60718 18.375 10.125 18.375ZM6.375 18.375C6.89282 18.375 7.3125 18.7947 7.3125 19.3125C7.3125 19.8303 6.89282 20.25 6.375 20.25C5.85718 20.25 5.4375 19.8303 5.4375 19.3125C5.4375 18.7947 5.85718 18.375 6.375 18.375ZM13.875 18.375C14.3928 18.375 14.8125 18.7947 14.8125 19.3125C14.8125 19.8303 14.3928 20.25 13.875 20.25C13.3572 20.25 12.9375 19.8303 12.9375 19.3125C12.9375 18.7947 13.3572 18.375 13.875 18.375ZM17.625 18.375C18.1428 18.375 18.5625 18.7947 18.5625 19.3125C18.5625 19.8303 18.1428 20.25 17.625 20.25C17.1072 20.25 16.6875 19.8303 16.6875 19.3125C16.6875 18.7947 17.1072 18.375 17.625 18.375ZM11.0625 11.1094C11.0625 10.5916 11.4822 10.1719 12 10.1719C12.5178 10.1719 12.9375 10.5916 12.9375 11.1094C12.9375 11.6272 12.5178 12.0469 12 12.0469C11.4822 12.0469 11.0625 11.6272 11.0625 11.1094Z" fill="#505759"/>
</svg>
