<svg width="20" height="20" viewBox="0 0 20 20" fill="none" xmlns="http://www.w3.org/2000/svg">
<path fill-rule="evenodd" clip-rule="evenodd" d="M13.732 16.3096C13.9147 16.2243 14.0801 16.1093 14.2236 15.9676L14.9609 15.2394V18.2422C14.9609 19.2114 14.1724 20 13.2031 20H1.75781C0.788555 20 0 19.2114 0 18.2422V1.75781C0 0.788555 0.788555 0 1.75781 0H13.2031C14.1724 0 14.9609 0.788555 14.9609 1.75781V6.72289L9.97785 11.706C9.83258 11.8513 9.71484 12.0193 9.62797 12.2055L8.08113 15.5202C7.76973 16.1876 7.91039 16.9858 8.43113 17.5065C8.9693 18.0448 9.76559 18.1606 10.4174 17.8564L13.732 16.3096ZM11.875 3.78906H3.12504C2.80145 3.78906 2.5391 4.05141 2.5391 4.375C2.5391 4.69859 2.80145 4.96094 3.12504 4.96094H11.875C12.1986 4.96094 12.461 4.69859 12.461 4.375C12.461 4.05141 12.1986 3.78906 11.875 3.78906ZM10 6.91406H3.12504C2.80145 6.91406 2.5391 7.17641 2.5391 7.5C2.5391 7.82359 2.80145 8.08594 3.12504 8.08594H10C10.3236 8.08594 10.586 7.82359 10.586 7.5C10.586 7.17641 10.3236 6.91406 10 6.91406ZM3.12504 10.0391C2.80145 10.0391 2.5391 10.3014 2.5391 10.625C2.5391 10.9486 2.80145 11.2109 3.12504 11.2109H8.12504C8.44863 11.2109 8.71098 10.9486 8.71098 10.625C8.71098 10.3014 8.44863 10.0391 8.12504 10.0391H3.12504ZM18.6786 6.31981C18.2506 5.89153 17.5702 5.86461 17.1102 6.23949L17.0935 6.2531C17.0568 6.28348 17.0229 6.31735 16.6359 6.70486C16.5 6.84092 16.3205 7.02056 16.0822 7.25895L18.7117 9.88852L19.6567 8.95528C20.1136 8.49836 20.1136 7.75492 19.6567 7.29797L18.6786 6.31981ZM10.6899 12.7011L9.14312 16.0157C9.03894 16.239 9.08554 16.5036 9.25976 16.6778C9.43398 16.8521 9.69866 16.8987 9.92187 16.7945L13.2365 15.2476C13.2456 15.2434 13.2521 15.2412 13.2581 15.2393C13.2596 15.2388 13.2611 15.2383 13.2626 15.2378C13.3191 15.2183 13.3663 15.1716 15.224 13.3347C15.8668 12.6991 16.7263 11.8492 17.878 10.7119L15.2536 8.08757C14.1077 9.23348 13.2519 10.0881 12.6123 10.7269C10.7702 12.5663 10.7211 12.6154 10.7002 12.6744C10.6996 12.676 10.699 12.6777 10.6985 12.6793C10.6964 12.6854 10.6941 12.6921 10.6899 12.7011Z" fill="#FF2C00"/>
</svg>
