<svg width="50" height="50" viewBox="0 0 50 50" fill="none" xmlns="http://www.w3.org/2000/svg">
<path d="M25 0.625C11.5598 0.625 0.625 11.5598 0.625 25C0.625 38.4402 11.5598 49.375 25 49.375C38.4402 49.375 49.375 38.4402 49.375 25C49.375 11.5598 38.4402 0.625 25 0.625ZM37.6855 16.8309L21.9355 35.5809C21.7628 35.7866 21.5478 35.9529 21.3052 36.0683C21.0626 36.1838 20.798 36.2457 20.5293 36.25H20.4977C20.2348 36.2499 19.975 36.1946 19.735 36.0876C19.4949 35.9806 19.2801 35.8243 19.1043 35.6289L12.3543 28.1289C12.1829 27.9471 12.0495 27.7328 11.9621 27.4987C11.8746 27.2646 11.8349 27.0154 11.8451 26.7658C11.8554 26.5161 11.9154 26.271 12.0218 26.0448C12.1281 25.8187 12.2786 25.6161 12.4643 25.4489C12.6501 25.2818 12.8673 25.1534 13.1034 25.0714C13.3395 24.9894 13.5895 24.9555 13.8389 24.9715C14.0883 24.9876 14.3319 25.0533 14.5555 25.1648C14.7792 25.2764 14.9782 25.4315 15.141 25.6211L20.4484 31.518L34.8145 14.4191C35.1367 14.0466 35.5926 13.8158 36.0836 13.7767C36.5747 13.7375 37.0614 13.8932 37.4386 14.21C37.8157 14.5269 38.0531 14.9794 38.0993 15.4698C38.1455 15.9602 37.9969 16.4491 37.6855 16.8309Z" fill="#30D1AB"/>
</svg>
