<svg width="50" height="50" viewBox="0 0 50 50" fill="none" xmlns="http://www.w3.org/2000/svg">
<path d="M25 0.625C11.5598 0.625 0.625 11.5598 0.625 25C0.625 38.4402 11.5598 49.375 25 49.375C38.4402 49.375 49.375 38.4402 49.375 25C49.375 11.5598 38.4402 0.625 25 0.625ZM33.8254 31.1746C34.0068 31.347 34.1519 31.5539 34.2521 31.7833C34.3523 32.0126 34.4056 32.2597 34.4088 32.5099C34.412 32.7602 34.3651 33.0085 34.2708 33.2404C34.1765 33.4722 34.0367 33.6828 33.8598 33.8598C33.6828 34.0367 33.4722 34.1765 33.2404 34.2708C33.0085 34.3651 32.7602 34.412 32.5099 34.4088C32.2597 34.4056 32.0126 34.3523 31.7833 34.2521C31.5539 34.1519 31.347 34.0068 31.1746 33.8254L25 27.652L18.8254 33.8254C18.4709 34.1622 17.9989 34.3472 17.5099 34.3409C17.021 34.3346 16.5539 34.1376 16.2081 33.7919C15.8624 33.4461 15.6654 32.979 15.6591 32.4901C15.6528 32.0011 15.8378 31.5291 16.1746 31.1746L22.348 25L16.1746 18.8254C15.8378 18.4709 15.6528 17.9989 15.6591 17.5099C15.6654 17.021 15.8624 16.5539 16.2081 16.2081C16.5539 15.8624 17.021 15.6654 17.5099 15.6591C17.9989 15.6528 18.4709 15.8378 18.8254 16.1746L25 22.348L31.1746 16.1746C31.5291 15.8378 32.0011 15.6528 32.4901 15.6591C32.979 15.6654 33.4461 15.8624 33.7919 16.2081C34.1376 16.5539 34.3346 17.021 34.3409 17.5099C34.3472 17.9989 34.1622 18.4709 33.8254 18.8254L27.652 25L33.8254 31.1746Z" fill="#FFC632"/>
</svg>
